<svg width="78" height="67" viewBox="0 0 78 67" fill="none" xmlns="http://www.w3.org/2000/svg">
<path d="M54.0626 36.6697C54.0927 36.5284 54.1739 36.3014 54.2382 35.95C54.2938 35.5989 54.3452 35.1278 54.3067 34.5624C54.2725 34.0014 54.1567 33.359 53.9598 32.7424C53.7671 32.1213 53.4803 31.539 53.1803 31.0722C52.4781 29.9972 51.6216 29.1191 50.825 28.5666C50.7736 28.5326 50.7264 28.4983 50.6792 28.4596C50.6278 28.4211 50.5424 28.3826 50.4781 28.3441C50.341 28.2626 50.2039 28.177 50.0711 28.087C49.9469 27.9843 49.7843 27.9329 49.643 27.8515C49.4972 27.7744 49.3517 27.693 49.2104 27.6031C48.889 27.4789 48.5935 27.3119 48.2596 27.1748C48.0882 27.1149 47.9214 27.0506 47.7542 26.9778L47.5017 26.8708L47.2317 26.7894C45.8056 26.3054 44.1525 25.9414 42.3323 25.7316C40.5079 25.526 38.5292 25.496 36.4523 25.6117C35.7885 25.6331 35.0048 25.8815 33.9081 25.2562C32.8419 24.6609 31.3514 23.2347 29.4584 19.8557C27.4971 16.331 26.435 13.2818 26.5035 10.8278C26.5249 9.59006 26.8461 8.58362 27.4029 7.75278C27.9553 6.91337 28.7862 6.36093 29.8011 6.06112C34.752 4.69067 39.9126 4.49365 44.9663 5.02899C47.5017 5.32449 50.0112 5.73992 52.5295 6.37803C55.0391 7.02472 57.5531 7.77848 60.1011 8.73781C61.0306 9.08899 61.9343 9.52581 62.8464 9.9541C63.309 10.2068 63.7758 10.468 64.2298 10.7421C64.6708 11.0248 65.125 11.3074 65.5531 11.6158C67.2792 12.8321 68.8295 14.2539 70.1955 15.8085C72.9281 18.9306 74.9194 22.5923 76.1273 26.5538C77.3264 30.5154 77.7888 34.8022 77.2107 39.2051C76.9236 41.402 76.3756 43.616 75.5447 45.766C75.1334 46.841 74.641 47.8947 74.0972 48.9267C73.8146 49.4362 73.5191 49.9461 73.2236 50.4385C72.9194 50.9096 72.611 51.3848 72.2941 51.8517C69.9685 55.1624 67.0222 57.7534 63.9857 59.7104C60.932 61.6593 57.7714 63.0211 54.611 64.0233C48.3067 65.9632 41.75 66.627 35.0775 66.036C31.9469 65.7492 28.7733 65.2095 25.6127 64.293C22.4521 63.3764 19.3 62.0789 16.3235 60.3143C10.1907 56.6654 5.22705 51.2051 2.41331 44.6183C1.19274 41.7789 0.421857 38.7081 0.130634 35.5475C-0.173437 32.3913 0.0578287 29.1191 0.777323 25.95C0.867259 25.556 0.944348 25.1577 1.0557 24.7679L1.40688 23.5988L1.77519 22.4382C1.89939 22.0527 2.07498 21.6544 2.22916 21.269C2.83301 19.6887 3.61247 18.2369 4.42191 16.8364C6.09643 14.0612 8.135 11.6929 10.3534 9.60719C10.6147 9.36309 10.8674 9.09329 11.1115 8.81062C11.3556 8.52368 11.6211 8.24958 11.8695 7.94551C12.1222 7.64573 12.3749 7.33309 12.6276 7.01188C12.756 6.85343 12.8845 6.69067 13.013 6.52795L13.4241 6.06112C13.9852 5.44441 14.5419 4.78916 15.1929 4.24525C15.8438 3.70135 16.5205 3.19171 17.2529 2.81483C17.8738 2.51933 18.5976 2.17672 19.3771 1.82982C20.1694 1.49577 21.0559 1.20883 21.9296 0.926168C22.8161 0.66064 23.7497 0.497899 24.6063 0.35657C25.0303 0.279481 25.4671 0.26235 25.8739 0.249502C26.2808 0.236654 26.6662 0.240937 27.0217 0.266633C27.3258 0.288045 27.6341 0.313742 27.9425 0.335157C28.2638 0.373699 28.5764 0.407961 28.8846 0.429376C29.5014 0.467919 30.0966 0.446506 30.6792 0.266633C31.3559 0.0953247 31.9938 0.0182362 32.5593 0.00110542C33.1289 -0.00745997 33.6298 0.0310843 34.0669 0.210958C34.9362 0.536444 35.4972 1.13174 35.7413 2.00113C35.9854 2.87051 35.9126 4.01399 35.5871 5.46584C35.266 6.92194 34.7006 8.6907 34.0539 10.8321C33.7714 11.7742 33.6042 12.8878 33.3944 13.9156C33.1846 14.9435 32.9362 15.8899 32.6149 16.5195C32.5893 16.5709 32.5334 16.6779 32.5079 16.7379L31.8697 18.3568C31.6899 18.8022 31.5441 19.1405 31.4115 19.3932C31.2787 19.6287 31.1503 19.8471 31.0261 19.9756C30.9017 20.1084 30.7775 20.1726 30.6492 20.1897C30.3921 20.254 30.0966 20.2026 29.7798 20.1041C29.4629 20.0698 29.1244 20.0227 28.8289 20.1426C28.6492 20.2412 28.4736 20.3354 28.2935 20.421C28.2037 20.4681 28.1096 20.4981 28.0239 20.5538L27.7626 20.7208L27.2315 21.0377C27.0645 21.1705 26.8932 21.2947 26.7219 21.4146C26.6363 21.4788 26.5463 21.5302 26.4649 21.5945L26.2251 21.8086C26.0667 21.9499 25.8996 22.0827 25.7369 22.2155C25.5913 22.3739 25.4414 22.5238 25.2915 22.6737L25.0602 22.8921L24.8589 23.1405C24.7262 23.3033 24.5891 23.4617 24.4478 23.6159C24.3279 23.7872 24.2165 23.9585 24.0923 24.1256L23.9082 24.374C23.8482 24.4553 23.8097 24.5496 23.7583 24.6352C23.6598 24.8108 23.557 24.9821 23.4456 25.1491C23.1159 25.8558 22.7733 26.541 22.6448 27.2177C22.5249 27.526 22.5035 27.95 22.4178 28.327C22.375 28.5197 22.3921 28.7253 22.3664 28.9222C22.3536 29.1236 22.3107 29.3163 22.3279 29.5261C22.3321 29.7317 22.3321 29.9371 22.3279 30.1427C22.315 30.3483 22.3664 30.5624 22.375 30.7722C22.3835 31.1921 22.4863 31.6244 22.542 32.0528C22.7262 32.9138 22.9488 33.7958 23.3215 34.6525C23.6426 35.5219 24.118 36.3525 24.6105 37.1579C25.2358 38.1427 25.9681 39.0551 26.7519 39.8902C26.9575 40.0871 27.1416 40.3098 27.3558 40.4941C27.5699 40.6739 27.7797 40.8624 27.9896 41.0508C28.4393 41.3806 28.8419 41.723 29.3685 42.023C31.3472 43.282 33.8183 44.0143 36.3837 43.9972C36.739 43.9801 37.1031 43.9073 37.4587 43.8303C37.814 43.7489 38.1823 43.616 38.5292 43.5433C38.8761 43.4747 39.2317 43.3806 39.5742 43.389C39.9169 43.402 40.2596 43.4534 40.6149 43.6205L40.5893 43.616C42.0711 43.3506 43.4671 42.6997 44.8806 42.464C46.2295 42.2458 47.5744 41.8345 48.7523 41.3421C49.9298 40.8452 50.9534 40.25 51.7244 39.6761C52.5037 39.0978 53.0391 38.5581 53.4073 38.1256C53.5188 38.023 53.5787 37.9073 53.6815 37.8174C53.7371 37.736 53.8143 37.6716 53.8742 37.5905C54.0028 37.432 54.1567 37.2607 54.3067 37.0421C54.3497 36.9694 54.0326 36.7767 54.0626 36.6697Z" fill="#B8D0F4"/>
</svg>
