<svg width="122" height="106" viewBox="0 0 122 106" fill="none" xmlns="http://www.w3.org/2000/svg">
<path d="M54.0626 36.6697C54.0927 36.5284 54.1739 36.3014 54.2382 35.95C54.2938 35.5989 54.3452 35.1278 54.3067 34.5624C54.2725 34.0014 54.1567 33.359 53.9598 32.7424C53.7671 32.1213 53.4803 31.539 53.1803 31.0722C52.4781 29.9972 51.6216 29.1191 50.825 28.5666C50.7736 28.5326 50.7264 28.4983 50.6792 28.4596C50.6278 28.4211 50.5424 28.3826 50.4781 28.3441C50.341 28.2626 50.2039 28.177 50.0711 28.087C49.9469 27.9843 49.7843 27.9329 49.643 27.8515C49.4972 27.7744 49.3517 27.693 49.2104 27.6031C48.889 27.4789 48.5935 27.3119 48.2596 27.1748C48.0882 27.1149 47.9214 27.0506 47.7542 26.9778L47.5017 26.8708L47.2317 26.7894C45.8056 26.3054 44.1525 25.9414 42.3323 25.7316C40.5079 25.526 38.5292 25.496 36.4523 25.6117C35.7885 25.6331 35.0048 25.8815 33.9081 25.2562C32.8419 24.6609 31.3514 23.2347 29.4584 19.8557C27.4971 16.331 26.435 13.2818 26.5035 10.8278C26.5249 9.59006 26.8461 8.58362 27.4029 7.75278C27.9553 6.91337 28.7862 6.36093 29.8011 6.06112C34.752 4.69067 39.9126 4.49365 44.9663 5.02899C47.5017 5.32449 50.0112 5.73992 52.5295 6.37803C55.0391 7.02472 57.5531 7.77848 60.1011 8.73781C61.0306 9.08899 61.9343 9.52581 62.8464 9.9541C63.309 10.2068 63.7758 10.468 64.2298 10.7421C64.6708 11.0248 65.125 11.3074 65.5531 11.6158C67.2792 12.8321 68.8295 14.2539 70.1955 15.8085C72.9281 18.9306 74.9194 22.5923 76.1273 26.5538C77.3264 30.5154 77.7888 34.8022 77.2107 39.2051C76.9236 41.402 76.3756 43.616 75.5447 45.766C75.1334 46.841 74.641 47.8947 74.0972 48.9267C73.8146 49.4362 73.5191 49.9461 73.2236 50.4385C72.9194 50.9096 72.611 51.3848 72.2941 51.8517C69.9685 55.1624 67.0222 57.7534 63.9857 59.7104C60.932 61.6593 57.7714 63.0211 54.611 64.0233C48.3067 65.9632 41.75 66.627 35.0775 66.036C31.9469 65.7492 28.7733 65.2095 25.6127 64.293C22.4521 63.3764 19.3 62.0789 16.3235 60.3143C10.1907 56.6654 5.22705 51.2051 2.41331 44.6183C1.19274 41.7789 0.421857 38.7081 0.130634 35.5475C-0.173437 32.3913 0.0578287 29.1191 0.777323 25.95C0.867259 25.556 0.944348 25.1577 1.0557 24.7679L1.40688 23.5988L1.77519 22.4382C1.89939 22.0527 2.07498 21.6544 2.22916 21.269C2.83301 19.6887 3.61247 18.2369 4.42191 16.8364C6.09643 14.0612 8.135 11.6929 10.3534 9.60719C10.6147 9.36309 10.8674 9.09329 11.1115 8.81062C11.3556 8.52368 11.6211 8.24958 11.8695 7.94551C12.1222 7.64573 12.3749 7.33309 12.6276 7.01188C12.756 6.85343 12.8845 6.69067 13.013 6.52795L13.4241 6.06112C13.9852 5.44441 14.5419 4.78916 15.1929 4.24525C15.8438 3.70135 16.5205 3.19171 17.2529 2.81483C17.8738 2.51933 18.5976 2.17672 19.3771 1.82982C20.1694 1.49577 21.0559 1.20883 21.9296 0.926168C22.8161 0.66064 23.7497 0.497899 24.6063 0.35657C25.0303 0.279481 25.4671 0.26235 25.8739 0.249502C26.2808 0.236654 26.6662 0.240937 27.0217 0.266633C27.3258 0.288045 27.6341 0.313742 27.9425 0.335157C28.2638 0.373699 28.5764 0.407961 28.8846 0.429376C29.5014 0.467919 30.0966 0.446506 30.6792 0.266633C31.3559 0.0953247 31.9938 0.0182362 32.5593 0.00110542C33.1289 -0.00745997 33.6298 0.0310843 34.0669 0.210958C34.9362 0.536444 35.4972 1.13174 35.7413 2.00113C35.9854 2.87051 35.9126 4.01399 35.5871 5.46584C35.266 6.92194 34.7006 8.6907 34.0539 10.8321C33.7714 11.7742 33.6042 12.8878 33.3944 13.9156C33.1846 14.9435 32.9362 15.8899 32.6149 16.5195C32.5893 16.5709 32.5334 16.6779 32.5079 16.7379L31.8697 18.3568C31.6899 18.8022 31.5441 19.1405 31.4115 19.3932C31.2787 19.6287 31.1503 19.8471 31.0261 19.9756C30.9017 20.1084 30.7775 20.1726 30.6492 20.1897C30.3921 20.254 30.0966 20.2026 29.7798 20.1041C29.4629 20.0698 29.1244 20.0227 28.8289 20.1426C28.6492 20.2412 28.4736 20.3354 28.2935 20.421C28.2037 20.4681 28.1096 20.4981 28.0239 20.5538L27.7626 20.7208L27.2315 21.0377C27.0645 21.1705 26.8932 21.2947 26.7219 21.4146C26.6363 21.4788 26.5463 21.5302 26.4649 21.5945L26.2251 21.8086C26.0667 21.9499 25.8996 22.0827 25.7369 22.2155C25.5913 22.3739 25.4414 22.5238 25.2915 22.6737L25.0602 22.8921L24.8589 23.1405C24.7262 23.3033 24.5891 23.4617 24.4478 23.6159C24.3279 23.7872 24.2165 23.9585 24.0923 24.1256L23.9082 24.374C23.8482 24.4553 23.8097 24.5496 23.7583 24.6352C23.6598 24.8108 23.557 24.9821 23.4456 25.1491C23.1159 25.8558 22.7733 26.541 22.6448 27.2177C22.5249 27.526 22.5035 27.95 22.4178 28.327C22.375 28.5197 22.3921 28.7253 22.3664 28.9222C22.3536 29.1236 22.3107 29.3163 22.3279 29.5261C22.3321 29.7317 22.3321 29.9371 22.3279 30.1427C22.315 30.3483 22.3664 30.5624 22.375 30.7722C22.3835 31.1921 22.4863 31.6244 22.542 32.0528C22.7262 32.9138 22.9488 33.7958 23.3215 34.6525C23.6426 35.5219 24.118 36.3525 24.6105 37.1579C25.2358 38.1427 25.9681 39.0551 26.7519 39.8902C26.9575 40.0871 27.1416 40.3098 27.3558 40.4941C27.5699 40.6739 27.7797 40.8624 27.9896 41.0508C28.4393 41.3806 28.8419 41.723 29.3685 42.023C31.3472 43.282 33.8183 44.0143 36.3837 43.9972C36.739 43.9801 37.1031 43.9073 37.4587 43.8303C37.814 43.7489 38.1823 43.616 38.5292 43.5433C38.8761 43.4747 39.2317 43.3806 39.5742 43.389C39.9169 43.402 40.2596 43.4534 40.6149 43.6205L40.5893 43.616C42.0711 43.3506 43.4671 42.6997 44.8806 42.464C46.2295 42.2458 47.5744 41.8345 48.7523 41.3421C49.9298 40.8452 50.9534 40.25 51.7244 39.6761C52.5037 39.0978 53.0391 38.5581 53.4073 38.1256C53.5188 38.023 53.5787 37.9073 53.6815 37.8174C53.7371 37.736 53.8143 37.6716 53.8742 37.5905C54.0028 37.432 54.1567 37.2607 54.3067 37.0421C54.3497 36.9694 54.0326 36.7767 54.0626 36.6697Z" fill="#B8D0F4"/>
<path d="M108.127 54.837C108.036 54.739 107.807 54.4356 107.315 54.1396C106.84 53.841 106.143 53.6118 105.62 53.5952C105.319 53.5809 105.027 53.5952 104.767 53.6261C104.703 53.6334 104.641 53.6477 104.576 53.6547C104.516 53.6691 104.457 53.6811 104.397 53.6907C104.337 53.7098 104.292 53.7146 104.22 53.7337C104.141 53.7598 104.06 53.7862 103.979 53.8076C103.334 53.9963 102.67 54.2758 101.954 54.6744C100.528 55.4792 98.9353 56.7545 97.278 58.3522C97.1443 58.4741 97.0106 58.634 96.8336 58.7772C96.6547 58.9208 96.4086 59.0401 96.0718 59.0997C95.396 59.2143 94.2617 59.0901 92.2701 58.2545C90.1971 57.3778 88.6687 56.437 87.8041 55.4362C87.3671 54.9373 87.1117 54.4356 87.0305 53.946C86.9898 53.7025 86.9876 53.459 87.0376 53.2297C87.0901 53.0005 87.1881 52.7783 87.3288 52.5682C87.6609 52.057 88.0502 51.5747 88.4227 51.0924C88.8263 50.6219 89.2131 50.1539 89.6527 49.712C90.4957 48.814 91.4246 47.9854 92.3822 47.1901L93.1083 46.6002L93.8606 46.0317C94.1041 45.8385 94.3645 45.657 94.6224 45.4755C94.8825 45.2938 95.1286 45.1005 95.396 44.9261C96.442 44.2003 97.5429 43.5171 98.6822 42.8078C99.1097 42.5665 99.5443 42.3255 99.9957 42.1129C100.225 42.0126 100.454 41.9171 100.688 41.8216L101.039 41.6806C101.154 41.6328 101.276 41.5899 101.407 41.5494C102.439 41.2101 103.499 41.0025 104.555 40.9118C106.67 40.7326 108.77 41.0095 110.757 41.6615C112.743 42.316 114.637 43.3429 116.335 44.7758C118.026 46.2039 119.521 48.0882 120.51 50.321C121.403 52.3199 121.773 54.5741 121.625 56.6758C121.489 58.7868 120.92 60.7786 120.034 62.5458L119.695 63.205C119.578 63.4222 119.447 63.63 119.32 63.8401C119.074 64.2677 118.788 64.6665 118.504 65.0654C118.222 65.4665 117.897 65.8368 117.589 66.2163C117.252 66.5769 116.93 66.9472 116.567 67.284C116.206 67.623 115.846 67.962 115.449 68.2702C115.253 68.4255 115.062 68.5854 114.859 68.7359L114.236 69.1705C113.395 69.739 112.495 70.2404 111.571 70.6415C110.702 71.0188 109.816 71.3413 108.915 71.5873C108.017 71.8309 107.107 72.0149 106.195 72.1317C105.285 72.2441 104.371 72.2966 103.458 72.287C102.549 72.2702 101.639 72.1938 100.736 72.0553C99.8356 71.9098 98.9423 71.7019 98.0589 71.4272C97.18 71.1455 96.3131 70.7969 95.4701 70.3789C94.6294 69.9539 93.8128 69.4547 93.0342 68.8814C92.2581 68.3036 91.5224 67.6421 90.8465 66.9112C89.6884 65.6384 88.7213 64.1244 88.0789 62.4767C87.7446 61.6576 87.5151 60.8143 87.3288 59.9761C87.1665 59.1356 87.0496 58.2949 87.0232 57.4663C86.9446 55.809 87.1404 54.2137 87.4794 52.7042C87.8305 51.1974 88.344 49.7741 88.9673 48.4247C89.2656 47.7918 89.4089 47.0205 89.6336 46.2253C89.8533 45.4348 90.1373 44.6157 90.6437 43.9803C91.0474 43.4528 91.63 42.7674 92.294 42.1536C92.9482 41.5351 93.7148 41.0168 94.3502 40.7421C94.6319 40.63 94.9232 40.5272 95.1859 40.3983C95.4581 40.2741 95.7041 40.1261 95.8999 39.9039C96.1291 39.6556 96.3634 39.455 96.5901 39.3045C96.8193 39.1587 97.0488 39.0679 97.2659 39.025C97.6982 38.9368 98.1041 39.0848 98.4505 39.4286C98.8016 39.7772 99.1072 40.3385 99.401 41.1146C99.6971 41.8907 99.9836 42.882 100.342 44.0713C100.502 44.5941 100.758 45.1674 100.968 45.7118C101.18 46.2564 101.35 46.7722 101.388 47.1637C101.39 47.1972 101.4 47.264 101.407 47.3022C101.481 47.6845 101.541 47.9997 101.581 48.2553C101.624 48.5179 101.65 48.7255 101.658 48.8904C101.663 49.0505 101.655 49.1842 101.629 49.2797C101.6 49.3752 101.557 49.4421 101.502 49.4994C101.388 49.5997 101.225 49.6474 101.049 49.6952C100.882 49.755 100.7 49.8146 100.593 49.9578C100.06 50.6362 99.6229 51.4531 99.3364 52.3174C99.0499 53.182 98.9185 54.087 98.9567 54.9135C98.9926 55.7421 99.1932 56.4705 99.5083 57.0604C99.8213 57.6477 100.294 58.1946 100.936 58.6578C101.71 59.2238 102.701 59.7182 103.745 59.8949C104.779 60.0859 105.859 59.9331 106.551 59.4196C106.747 59.2885 106.859 59.0137 106.971 58.8275C107.019 58.7199 107.081 58.6508 107.143 58.5935C107.177 58.5671 107.217 58.5553 107.263 58.548C107.306 58.5362 107.358 58.5362 107.423 58.5505H107.416C107.65 58.209 107.731 57.7337 107.974 57.4424C108.211 57.1581 108.385 56.8143 108.478 56.5014C108.572 56.1862 108.581 55.9115 108.562 55.73C108.54 55.5415 108.509 55.4483 108.497 55.3385C108.471 55.2309 108.452 55.0733 108.359 54.8224C108.345 54.782 108.168 54.8775 108.127 54.837Z" fill="#B8D0F4"/>
<path d="M77.9827 93.8125C77.9734 93.7546 77.9529 93.6558 77.9122 93.5319C77.8807 93.4032 77.8055 93.2605 77.7271 93.1179C77.6487 92.9718 77.5389 92.851 77.4417 92.7634C77.4291 92.7524 77.4181 92.7398 77.4071 92.7271C77.3945 92.7148 77.3726 92.7035 77.3569 92.6926C77.3209 92.6707 77.2925 92.6395 77.2532 92.6204C77.2142 92.6016 77.1779 92.5797 77.1437 92.5577C77.1074 92.5375 77.065 92.5263 77.0274 92.5075C76.8501 92.4386 76.6541 92.3726 76.4347 92.3336C76.215 92.2943 75.9782 92.2707 75.7333 92.2628C75.2425 92.2583 74.7184 92.3209 74.2496 92.4589C73.7538 92.5923 73.208 92.837 72.64 93.16C72.0771 93.4973 71.4824 93.9209 70.8959 94.4448C70.8504 94.4872 70.8018 94.5311 70.7498 94.5782C70.6998 94.6268 70.6465 94.6768 70.5821 94.724C70.4518 94.815 70.2965 94.9013 70.0644 94.9389C69.8307 94.9749 69.5389 94.9766 69.131 94.8965C68.7248 94.8164 68.2088 94.6614 67.5594 94.3757C66.2057 93.7861 65.2158 93.1288 64.692 92.3993C64.1729 91.6811 64.1209 90.8951 64.5962 90.2597C65.7366 88.7288 67.2394 87.4662 68.9116 86.4872C69.7524 85.9962 70.6246 85.5805 71.5563 85.2215C72.488 84.8636 73.4355 84.5844 74.4142 84.3476C75.1327 84.1799 75.8762 84.0889 76.6321 84.0858C77.3897 84.0889 78.1569 84.1768 78.9209 84.3555C79.683 84.5392 80.4392 84.8215 81.1639 85.1931C81.3442 85.2903 81.5231 85.3892 81.7004 85.4912C81.876 85.5979 82.047 85.7139 82.2181 85.8285C82.3889 85.9384 82.5583 86.0749 82.7262 86.2066C82.8925 86.3398 83.0633 86.4732 83.2125 86.619C83.8462 87.1853 84.3732 87.8347 84.8296 88.5187C85.2878 89.2041 85.6484 89.9429 85.9307 90.7162C86.0782 91.099 86.1849 91.5004 86.2917 91.9021C86.3779 92.3114 86.4659 92.7179 86.5066 93.1429C86.6038 93.9836 86.61 94.8558 86.4799 95.7403L86.4392 96.037L86.3762 96.335C86.3324 96.5327 86.29 96.7302 86.2352 96.928C86.1114 97.317 85.9841 97.7184 85.8226 98.0746C85.5074 98.8038 85.101 99.4628 84.6571 100.054C84.2116 100.645 83.7223 101.163 83.2156 101.621C82.7074 102.079 82.1805 102.486 81.6423 102.841C80.5521 103.532 79.3976 104.14 78.1928 104.534C77.8948 104.652 77.5906 104.732 77.2864 104.818C76.9819 104.901 76.6793 105 76.3703 105.055L75.4462 105.243C75.1372 105.29 74.8268 105.329 74.5161 105.372C74.3703 105.389 74.2243 105.416 74.0785 105.425L73.6392 105.456C73.3459 105.474 73.051 105.507 72.7577 105.51L71.8732 105.518L71.6504 105.519L71.429 105.508L70.9852 105.483C70.3908 105.463 69.801 105.375 69.2063 105.295C68.9099 105.249 68.6167 105.18 68.3201 105.121L67.8762 105.025C67.7288 104.991 67.583 104.943 67.4369 104.903C67.1437 104.818 66.8504 104.73 66.5585 104.638C66.2701 104.529 65.983 104.418 65.6942 104.302C65.5515 104.242 65.4057 104.191 65.2644 104.122L64.8442 103.914C64.5664 103.77 64.281 103.638 64.0111 103.472C63.7414 103.306 63.4731 103.136 63.208 102.962L63.0088 102.83L62.8175 102.685L62.4394 102.388C61.9282 101.993 61.467 101.562 61.0307 101.088C60.2796 100.274 59.6364 99.3246 59.1282 98.2738C58.6246 97.2195 58.2608 96.0558 58.0993 94.837C58.0569 94.5372 58.0316 94.2173 58.0114 93.9035C58.0004 93.59 57.9939 93.2763 58.0083 92.9656C58.0333 92.3445 58.1038 91.7296 58.2324 91.1257C58.3597 90.5218 58.5352 89.9257 58.7611 89.3437C58.9886 88.7617 59.2709 88.194 59.6018 87.6465C59.9108 87.1319 60.1886 86.5091 60.576 85.8864C60.965 85.2575 61.4889 84.6333 62.1021 84.2412C62.6088 83.9164 63.313 83.5415 64.0675 83.3047C64.8189 83.0631 65.6144 82.9547 66.2167 83.0176C66.474 83.0378 66.7406 83.0898 66.9962 83.11C67.2487 83.1462 67.4967 83.1524 67.7428 83.1195C68.0268 83.0833 68.2872 83.0709 68.5178 83.1038C68.7484 83.1305 68.9507 83.1839 69.1156 83.2718C69.4512 83.4347 69.6425 83.7016 69.6942 84.0403C69.7476 84.3791 69.6597 84.7931 69.4605 85.2999C69.2628 85.808 68.9538 86.4105 68.6071 87.1445C68.4566 87.4662 68.3389 87.8566 68.2088 88.2142C68.0802 88.5735 67.9467 88.8951 67.8071 89.1117C67.7962 89.1288 67.7726 89.1648 67.7616 89.187C67.6473 89.4063 67.5577 89.5931 67.4872 89.7485L67.3195 90.1122C67.2754 90.2032 67.2408 90.2645 67.2097 90.31C67.1782 90.3524 67.1515 90.3695 67.1279 90.3822C67.1046 90.3884 67.0779 90.3791 67.0465 90.3695C67.0167 90.3555 66.9821 90.3336 66.9445 90.3209C66.9069 90.3021 66.8675 90.285 66.8285 90.2833C66.7892 90.2754 66.7501 90.2771 66.717 90.299C66.5524 90.387 66.397 90.5061 66.2967 90.6252C66.2841 90.6409 66.2715 90.6535 66.2574 90.6676C66.2482 90.685 66.2369 90.7004 66.2246 90.7148C66.1979 90.7398 66.1821 90.7805 66.1524 90.8167C66.1274 90.8558 66.1038 90.8982 66.0785 90.9389C66.0597 90.9861 66.0299 91.0238 66.0111 91.0754C65.8338 91.4457 65.7319 91.9931 65.7821 92.5311C65.8246 93.0361 66.0206 93.6277 66.372 94.2094C66.5493 94.5013 66.7625 94.7914 67.0102 95.0707C67.1375 95.2086 67.2644 95.3468 67.4057 95.4768C67.5423 95.6103 67.6911 95.7358 67.8417 95.8471C68.5616 96.4229 69.4024 96.9136 70.3437 97.2117C71.2802 97.5114 72.317 97.5853 73.2771 97.3735C73.4071 97.342 73.5372 97.2982 73.6628 97.24C73.7866 97.174 73.9091 97.1052 74.0299 97.0502C74.0911 97.0221 74.1507 96.9985 74.2119 96.978C74.2715 96.953 74.331 96.9294 74.3906 96.9153C74.5114 96.8856 74.6369 96.8839 74.7748 96.9232H74.7656C75.2535 96.6957 75.6754 96.3836 76.0973 96.1766L76.2526 96.1091L76.331 96.0763L76.4015 96.0322C76.4956 95.9743 76.5931 95.9179 76.6886 95.8628C76.8847 95.7547 77.0636 95.6134 77.2203 95.4847C77.5358 95.2212 77.7538 94.9547 77.8684 94.7634C77.9262 94.6659 77.9625 94.5892 77.9875 94.5294C77.9906 94.5218 77.9937 94.5153 77.9984 94.5075C77.9984 94.503 77.9984 94.4965 77.9984 94.4917C78.0001 94.4825 78.0032 94.4746 78.0094 94.4667C78.0173 94.4479 78.0173 94.4229 78.0344 94.4024C78.0628 94.3004 78.1021 94.1341 78.1223 93.9114C78.124 93.8943 78.0925 93.8802 78.0597 93.8659C78.0268 93.8518 77.9875 93.8361 77.9827 93.8125Z" fill="#B8D0F4"/>
</svg>
