<svg width="288" height="326" viewBox="0 0 288 326" fill="none" xmlns="http://www.w3.org/2000/svg">
<path opacity="0.75" d="M112.544 176.032C94.5869 157.964 94.4856 128.766 112.308 110.832L209.147 13.3839C226.969 -4.5503 255.997 -4.44973 273.954 13.6185C291.911 31.6868 292.013 60.8843 274.191 78.8185C241.888 110.865 209.552 142.912 177.25 174.959C174.144 178.01 167.427 183.742 157.099 186.658C144.812 190.111 134.518 187.53 130.332 186.256C121.556 183.507 115.649 178.848 112.544 176.032Z" fill="#4E8AE3"/>
<path opacity="0.75" d="M177.25 174.958C159.056 192.792 129.657 192.892 111.599 175.193L13.4765 79.0523C-4.58178 61.3528 -4.48052 32.524 13.7128 14.6904C31.906 -3.14326 61.3056 -3.24383 79.3638 14.4557L177.486 110.63C180.693 113.714 190.346 123.804 191.359 139.023C191.966 147.739 189.469 154.644 188.389 157.56C185.216 166.142 180.321 171.908 177.216 175.025L177.25 174.958Z" fill="#E94B68"/>
<path opacity="0.75" d="M146.5 325.605C120.949 325.438 100.055 304.889 99.92 279.681L99.0086 142.777C98.8398 117.569 119.43 97.2883 145.015 97.4559C170.567 97.6235 191.46 118.172 191.595 143.381L192.507 280.284C192.675 305.492 172.086 325.773 146.5 325.605Z" fill="#41B963"/>
<path opacity="0.2" d="M191.258 142.979C191.156 149.449 189.604 154.377 188.861 156.488C188.591 157.226 187.68 159.707 185.958 162.858C184.203 166.009 180.085 173.417 171.377 179.585C164.626 184.345 158.28 186.222 155.209 186.993C150.652 188.1 146.871 188.301 144.88 188.368C141.538 188.435 130.94 188.468 120.037 181.797C117.472 180.222 112.038 176.535 107.278 169.931C99.1773 158.701 98.7385 146.935 98.7385 143.013C98.7385 140.599 99.0761 123.637 112.038 110.765C113.691 109.122 118.417 104.664 125.978 101.379C128.476 100.306 135.496 97.4901 144.846 97.4565C151.867 97.4565 157.166 99.0321 158.786 99.5684C159.158 99.7025 160.474 100.105 162.128 100.809C170.567 104.261 176.068 109.357 177.689 110.966C182.752 115.86 185.384 120.587 185.992 121.726C186.971 123.537 188.827 127.224 190.042 132.319C191.19 137.146 191.291 141.068 191.258 143.046V142.979Z" fill="white" fill-opacity="0.6"/>
</svg>
