<svg width="288" height="398" viewBox="0 0 288 398" fill="none" xmlns="http://www.w3.org/2000/svg">
<path opacity="0.75" d="M112.544 176.032C94.5869 157.964 94.4856 128.766 112.308 110.832L209.147 13.3839C226.969 -4.5503 255.997 -4.44973 273.954 13.6185C291.911 31.6868 292.013 60.8843 274.191 78.8185C241.888 110.865 209.552 142.912 177.25 174.959C174.144 178.01 167.427 183.742 157.099 186.658C144.812 190.111 134.518 187.53 130.332 186.256C121.556 183.507 115.649 178.848 112.544 176.032Z" fill="#4E8AE3"/>
<path opacity="0.75" d="M177.25 174.958C159.056 192.792 129.657 192.892 111.599 175.193L13.4765 79.0523C-4.58178 61.3528 -4.48052 32.524 13.7128 14.6904C31.906 -3.14326 61.3056 -3.24383 79.3638 14.4557L177.486 110.63C180.693 113.714 190.346 123.804 191.359 139.023C191.966 147.739 189.469 154.644 188.389 157.56C185.216 166.142 180.321 171.908 177.216 175.025L177.25 174.958Z" fill="#E94B68"/>
<path opacity="0.75" d="M146.5 325.605C120.948 325.438 100.055 304.889 99.9198 279.681L99.0085 142.777C98.8397 117.569 119.43 97.2883 145.015 97.4559C170.566 97.6235 191.46 118.172 191.595 143.381L192.506 280.284C192.675 305.492 172.085 325.773 146.5 325.605Z" fill="#41B963"/>
<path opacity="0.2" d="M191.258 142.979C191.156 149.449 189.604 154.377 188.861 156.488C188.591 157.226 187.68 159.707 185.958 162.858C184.203 166.009 180.085 173.417 171.377 179.585C164.626 184.345 158.28 186.222 155.209 186.993C150.652 188.1 146.871 188.301 144.88 188.368C141.538 188.435 130.94 188.468 120.037 181.797C117.472 180.222 112.038 176.535 107.278 169.931C99.1773 158.701 98.7385 146.935 98.7385 143.013C98.7385 140.599 99.0761 123.637 112.038 110.765C113.691 109.122 118.417 104.664 125.978 101.379C128.476 100.306 135.496 97.4901 144.846 97.4565C151.867 97.4565 157.166 99.0321 158.786 99.5684C159.158 99.7025 160.474 100.105 162.128 100.809C170.567 104.261 176.068 109.357 177.689 110.966C182.752 115.86 185.384 120.587 185.992 121.726C186.971 123.537 188.827 127.224 190.042 132.319C191.19 137.146 191.291 141.068 191.258 143.046V142.979Z" fill="white" fill-opacity="0.6"/>
<path d="M96.656 386.192L86.768 363.2H91.568L98.912 381.2H97.376L105.104 363.2H109.904L99.248 386.192H96.656ZM90.128 395.552L96.848 381.776L99.248 386.192L94.928 395.552H90.128ZM122.255 386.48C120.175 386.48 118.287 385.968 116.591 384.944C114.895 383.888 113.551 382.464 112.559 380.672C111.599 378.88 111.119 376.864 111.119 374.624C111.119 372.384 111.599 370.368 112.559 368.576C113.551 366.784 114.879 365.36 116.543 364.304C118.239 363.248 120.143 362.72 122.255 362.72C123.983 362.72 125.519 363.088 126.863 363.824C128.239 364.528 129.343 365.52 130.175 366.8C131.007 368.048 131.471 369.504 131.567 371.168V378.032C131.471 379.664 131.007 381.12 130.175 382.4C129.375 383.68 128.287 384.688 126.911 385.424C125.567 386.128 124.015 386.48 122.255 386.48ZM122.975 382.4C125.119 382.4 126.847 381.68 128.159 380.24C129.471 378.768 130.127 376.896 130.127 374.624C130.127 373.056 129.823 371.696 129.215 370.544C128.639 369.36 127.807 368.448 126.719 367.808C125.631 367.136 124.367 366.8 122.927 366.8C121.487 366.8 120.207 367.136 119.087 367.808C117.999 368.48 117.135 369.408 116.495 370.592C115.887 371.744 115.583 373.072 115.583 374.576C115.583 376.112 115.887 377.472 116.495 378.656C117.135 379.808 118.015 380.72 119.135 381.392C120.255 382.064 121.535 382.4 122.975 382.4ZM129.839 386V379.856L130.655 374.288L129.839 368.768V363.2H134.207V386H129.839ZM152.496 386.48C150.768 386.48 149.2 386.128 147.792 385.424C146.416 384.688 145.312 383.68 144.48 382.4C143.648 381.12 143.184 379.664 143.088 378.032V371.168C143.184 369.504 143.648 368.048 144.48 366.8C145.344 365.52 146.464 364.528 147.84 363.824C149.248 363.088 150.8 362.72 152.496 362.72C154.576 362.72 156.448 363.248 158.112 364.304C159.808 365.36 161.136 366.784 162.096 368.576C163.056 370.368 163.536 372.384 163.536 374.624C163.536 376.864 163.056 378.88 162.096 380.672C161.136 382.464 159.808 383.888 158.112 384.944C156.448 385.968 154.576 386.48 152.496 386.48ZM151.776 382.4C153.216 382.4 154.48 382.064 155.568 381.392C156.656 380.72 157.52 379.808 158.16 378.656C158.8 377.472 159.12 376.112 159.12 374.576C159.12 373.072 158.8 371.728 158.16 370.544C157.52 369.36 156.656 368.448 155.568 367.808C154.48 367.136 153.232 366.8 151.824 366.8C150.384 366.8 149.12 367.136 148.032 367.808C146.944 368.448 146.096 369.36 145.488 370.544C144.88 371.728 144.576 373.088 144.576 374.624C144.576 376.128 144.864 377.472 145.44 378.656C146.048 379.808 146.896 380.72 147.984 381.392C149.104 382.064 150.368 382.4 151.776 382.4ZM140.496 395.552V363.2H144.816V369.2L144 374.72L144.816 380.288V395.552H140.496ZM180.434 386.48C178.706 386.48 177.138 386.128 175.73 385.424C174.354 384.688 173.25 383.68 172.418 382.4C171.586 381.12 171.122 379.664 171.026 378.032V371.168C171.122 369.504 171.586 368.048 172.418 366.8C173.282 365.52 174.402 364.528 175.778 363.824C177.186 363.088 178.738 362.72 180.434 362.72C182.514 362.72 184.386 363.248 186.05 364.304C187.746 365.36 189.074 366.784 190.034 368.576C190.994 370.368 191.474 372.384 191.474 374.624C191.474 376.864 190.994 378.88 190.034 380.672C189.074 382.464 187.746 383.888 186.05 384.944C184.386 385.968 182.514 386.48 180.434 386.48ZM179.714 382.4C181.154 382.4 182.418 382.064 183.506 381.392C184.594 380.72 185.458 379.808 186.098 378.656C186.738 377.472 187.058 376.112 187.058 374.576C187.058 373.072 186.738 371.728 186.098 370.544C185.458 369.36 184.594 368.448 183.506 367.808C182.418 367.136 181.17 366.8 179.762 366.8C178.322 366.8 177.058 367.136 175.97 367.808C174.882 368.448 174.034 369.36 173.426 370.544C172.818 371.728 172.514 373.088 172.514 374.624C172.514 376.128 172.802 377.472 173.378 378.656C173.986 379.808 174.834 380.72 175.922 381.392C177.042 382.064 178.306 382.4 179.714 382.4ZM168.434 395.552V363.2H172.754V369.2L171.938 374.72L172.754 380.288V395.552H168.434ZM196.419 386V363.2H200.739V386H196.419ZM198.579 358.64C197.779 358.64 197.123 358.384 196.611 357.872C196.099 357.328 195.843 356.656 195.843 355.856C195.843 355.088 196.099 354.448 196.611 353.936C197.123 353.392 197.779 353.12 198.579 353.12C199.379 353.12 200.035 353.392 200.547 353.936C201.059 354.448 201.315 355.088 201.315 355.856C201.315 356.656 201.059 357.328 200.547 357.872C200.035 358.384 199.379 358.64 198.579 358.64Z" fill="white"/>
</svg>
