<svg width="288" height="398" viewBox="0 0 288 398" fill="none" xmlns="http://www.w3.org/2000/svg">
<path opacity="0.75" d="M112.544 176.032C94.5869 157.964 94.4856 128.766 112.308 110.832L209.147 13.3839C226.969 -4.5503 255.997 -4.44973 273.954 13.6185C291.911 31.6868 292.013 60.8843 274.191 78.8185C241.888 110.865 209.552 142.912 177.25 174.959C174.144 178.01 167.427 183.742 157.099 186.658C144.812 190.111 134.518 187.53 130.332 186.256C121.556 183.507 115.649 178.848 112.544 176.032Z" fill="#4E8AE3"/>
<path opacity="0.75" d="M177.25 174.958C159.056 192.792 129.657 192.892 111.599 175.193L13.4765 79.0523C-4.58178 61.3528 -4.48052 32.524 13.7128 14.6904C31.906 -3.14326 61.3056 -3.24383 79.3638 14.4557L177.486 110.63C180.693 113.714 190.346 123.804 191.359 139.023C191.966 147.739 189.469 154.644 188.389 157.56C185.216 166.142 180.321 171.908 177.216 175.025L177.25 174.958Z" fill="#E94B68"/>
<path opacity="0.75" d="M146.5 325.605C120.948 325.438 100.055 304.889 99.9198 279.681L99.0085 142.777C98.8397 117.569 119.43 97.2883 145.015 97.4559C170.566 97.6235 191.46 118.172 191.595 143.381L192.506 280.284C192.675 305.492 172.085 325.773 146.5 325.605Z" fill="#41B963"/>
<path opacity="0.2" d="M191.258 142.979C191.156 149.449 189.604 154.377 188.861 156.488C188.591 157.226 187.68 159.707 185.958 162.858C184.203 166.009 180.085 173.417 171.377 179.585C164.626 184.345 158.28 186.222 155.209 186.993C150.652 188.1 146.871 188.301 144.88 188.368C141.538 188.435 130.94 188.468 120.037 181.797C117.472 180.222 112.038 176.535 107.278 169.931C99.1773 158.701 98.7385 146.935 98.7385 143.013C98.7385 140.599 99.0761 123.637 112.038 110.765C113.691 109.122 118.417 104.664 125.978 101.379C128.476 100.306 135.496 97.4901 144.846 97.4565C151.867 97.4565 157.166 99.0321 158.786 99.5684C159.158 99.7025 160.474 100.105 162.128 100.809C170.567 104.261 176.068 109.357 177.689 110.966C182.752 115.86 185.384 120.587 185.992 121.726C186.971 123.537 188.827 127.224 190.042 132.319C191.19 137.146 191.291 141.068 191.258 143.046V142.979Z" fill="black" fill-opacity="0.6"/>
<path d="M97.656 386.192L87.768 363.2H92.568L99.912 381.2H98.376L106.104 363.2H110.904L100.248 386.192H97.656ZM91.128 395.552L97.848 381.776L100.248 386.192L95.928 395.552H91.128ZM123.255 386.48C121.175 386.48 119.287 385.968 117.591 384.944C115.895 383.888 114.551 382.464 113.559 380.672C112.599 378.88 112.119 376.864 112.119 374.624C112.119 372.384 112.599 370.368 113.559 368.576C114.551 366.784 115.879 365.36 117.543 364.304C119.239 363.248 121.143 362.72 123.255 362.72C124.983 362.72 126.519 363.088 127.863 363.824C129.239 364.528 130.343 365.52 131.175 366.8C132.007 368.048 132.471 369.504 132.567 371.168V378.032C132.471 379.664 132.007 381.12 131.175 382.4C130.375 383.68 129.287 384.688 127.911 385.424C126.567 386.128 125.015 386.48 123.255 386.48ZM123.975 382.4C126.119 382.4 127.847 381.68 129.159 380.24C130.471 378.768 131.127 376.896 131.127 374.624C131.127 373.056 130.823 371.696 130.215 370.544C129.639 369.36 128.807 368.448 127.719 367.808C126.631 367.136 125.367 366.8 123.927 366.8C122.487 366.8 121.207 367.136 120.087 367.808C118.999 368.48 118.135 369.408 117.495 370.592C116.887 371.744 116.583 373.072 116.583 374.576C116.583 376.112 116.887 377.472 117.495 378.656C118.135 379.808 119.015 380.72 120.135 381.392C121.255 382.064 122.535 382.4 123.975 382.4ZM130.839 386V379.856L131.655 374.288L130.839 368.768V363.2H135.207V386H130.839ZM153.496 386.48C151.768 386.48 150.2 386.128 148.792 385.424C147.416 384.688 146.312 383.68 145.48 382.4C144.648 381.12 144.184 379.664 144.088 378.032V371.168C144.184 369.504 144.648 368.048 145.48 366.8C146.344 365.52 147.464 364.528 148.84 363.824C150.248 363.088 151.8 362.72 153.496 362.72C155.576 362.72 157.448 363.248 159.112 364.304C160.808 365.36 162.136 366.784 163.096 368.576C164.056 370.368 164.536 372.384 164.536 374.624C164.536 376.864 164.056 378.88 163.096 380.672C162.136 382.464 160.808 383.888 159.112 384.944C157.448 385.968 155.576 386.48 153.496 386.48ZM152.776 382.4C154.216 382.4 155.48 382.064 156.568 381.392C157.656 380.72 158.52 379.808 159.16 378.656C159.8 377.472 160.12 376.112 160.12 374.576C160.12 373.072 159.8 371.728 159.16 370.544C158.52 369.36 157.656 368.448 156.568 367.808C155.48 367.136 154.232 366.8 152.824 366.8C151.384 366.8 150.12 367.136 149.032 367.808C147.944 368.448 147.096 369.36 146.488 370.544C145.88 371.728 145.576 373.088 145.576 374.624C145.576 376.128 145.864 377.472 146.44 378.656C147.048 379.808 147.896 380.72 148.984 381.392C150.104 382.064 151.368 382.4 152.776 382.4ZM141.496 395.552V363.2H145.816V369.2L145 374.72L145.816 380.288V395.552H141.496ZM181.434 386.48C179.706 386.48 178.138 386.128 176.73 385.424C175.354 384.688 174.25 383.68 173.418 382.4C172.586 381.12 172.122 379.664 172.026 378.032V371.168C172.122 369.504 172.586 368.048 173.418 366.8C174.282 365.52 175.402 364.528 176.778 363.824C178.186 363.088 179.738 362.72 181.434 362.72C183.514 362.72 185.386 363.248 187.05 364.304C188.746 365.36 190.074 366.784 191.034 368.576C191.994 370.368 192.474 372.384 192.474 374.624C192.474 376.864 191.994 378.88 191.034 380.672C190.074 382.464 188.746 383.888 187.05 384.944C185.386 385.968 183.514 386.48 181.434 386.48ZM180.714 382.4C182.154 382.4 183.418 382.064 184.506 381.392C185.594 380.72 186.458 379.808 187.098 378.656C187.738 377.472 188.058 376.112 188.058 374.576C188.058 373.072 187.738 371.728 187.098 370.544C186.458 369.36 185.594 368.448 184.506 367.808C183.418 367.136 182.17 366.8 180.762 366.8C179.322 366.8 178.058 367.136 176.97 367.808C175.882 368.448 175.034 369.36 174.426 370.544C173.818 371.728 173.514 373.088 173.514 374.624C173.514 376.128 173.802 377.472 174.378 378.656C174.986 379.808 175.834 380.72 176.922 381.392C178.042 382.064 179.306 382.4 180.714 382.4ZM169.434 395.552V363.2H173.754V369.2L172.938 374.72L173.754 380.288V395.552H169.434ZM197.419 386V363.2H201.739V386H197.419ZM199.579 358.64C198.779 358.64 198.123 358.384 197.611 357.872C197.099 357.328 196.843 356.656 196.843 355.856C196.843 355.088 197.099 354.448 197.611 353.936C198.123 353.392 198.779 353.12 199.579 353.12C200.379 353.12 201.035 353.392 201.547 353.936C202.059 354.448 202.315 355.088 202.315 355.856C202.315 356.656 202.059 357.328 201.547 357.872C201.035 358.384 200.379 358.64 199.579 358.64Z" fill="black"/>
</svg>
