<svg width="500" height="500" viewBox="0 0 500 500" fill="none" xmlns="http://www.w3.org/2000/svg">
<g clip-path="url(#clip0_60_79)">
<rect width="500" height="500" rx="250" fill="#B8D0F4"/>
<g clip-path="url(#clip1_60_79)">
<path d="M361.886 420.707C360.944 421.38 359.867 422.053 358.924 422.726C357.847 423.399 356.905 424.072 355.827 424.61C354.885 425.149 354.077 425.687 353.135 426.225C353 426.36 352.865 426.36 352.731 426.494C349.634 428.379 346.403 430.128 343.171 431.744C342.229 432.282 341.152 432.82 340.209 433.224C340.209 433.224 340.075 433.359 339.94 433.359L336.708 434.974C334.554 436.051 332.265 436.993 330.111 437.935C329.034 438.473 327.822 438.877 326.745 439.281C325.668 439.685 324.456 440.223 323.379 440.627C322.302 441.031 321.09 441.569 320.013 441.973H319.878C318.801 442.376 317.59 442.78 316.512 443.184C314.089 443.992 311.531 444.799 309.107 445.607C308.299 445.876 307.357 446.145 306.549 446.414C303.991 447.222 301.433 447.895 298.875 448.433C297.932 448.702 296.99 448.837 295.912 449.106C293.489 449.644 290.931 450.183 288.507 450.721C287.969 450.856 287.565 450.856 287.026 450.99C286.218 451.125 285.276 451.26 284.468 451.394C283.256 451.529 282.179 451.798 280.967 451.933C280.429 452.067 279.89 452.067 279.352 452.202C278.678 452.336 277.871 452.471 277.063 452.471C274.909 452.74 272.62 453.009 270.465 453.278C269.792 453.413 268.984 453.413 268.311 453.548H268.176C267.234 453.682 266.292 453.682 265.349 453.817C264.407 453.951 263.464 453.951 262.522 453.951C261.983 453.951 261.31 454.086 260.771 454.086C259.694 454.086 258.752 454.221 257.809 454.221C256.463 454.221 255.251 454.355 253.905 454.355H247.173C190.354 453.548 139.326 429.456 102.838 391.231C102.838 391.231 102.838 391.097 102.703 391.097C98.6641 387.462 102.165 368.081 118.456 355.833C138.922 340.355 187.931 330.664 187.931 330.664C187.931 330.664 206.915 327.569 277.332 342.239C318.532 350.853 349.903 363.37 367.407 397.288C371.042 404.287 374.677 415.054 361.886 420.707Z" fill="white"/>
<path d="M277.736 340.759C303.587 346.008 331.188 351.661 352.461 368.754C359.597 374.542 364.31 383.021 368.214 391.231C370.099 395.269 371.984 399.441 373.465 403.883C374.273 406.844 375.485 410.209 374.812 413.708C374.677 414.65 373.869 415.862 373.196 416.535C370.099 419.63 366.733 421.515 363.367 423.937C343.575 437.666 320.821 447.356 297.259 452.471C244.749 463.911 187.931 455.028 141.749 427.437C126.4 418.15 112.263 406.844 100.145 393.519C98.7987 391.904 98.7987 389.212 98.7987 387.462C98.9333 383.425 100.01 379.522 101.357 375.888C104.588 367.543 108.762 359.198 115.898 353.41C121.014 349.911 126.535 346.95 132.19 344.527C149.962 336.99 168.677 331.741 187.931 329.587C189.546 329.453 189.816 331.741 188.2 332.01C169.754 335.779 151.443 341.432 134.344 349.103C128.15 352.199 121.553 354.891 116.571 359.736C111.859 364.851 108.493 371.177 105.8 377.637C104.05 381.54 102.838 387.732 103.376 390.827C111.859 400.922 121.822 409.805 132.593 417.477C191.566 458.662 281.102 461.354 343.844 427.033C349.499 423.937 355.02 420.438 360.271 416.804C362.829 415.054 365.522 413.574 367.541 411.555C367.676 411.42 367.541 411.555 367.541 411.689C367.541 411.824 367.407 411.958 367.407 411.958C367.541 410.343 367.003 408.19 366.329 406.036C363.906 398.23 360.001 390.02 355.827 382.886C349.23 372.253 338.055 365.524 326.745 360.14C318.936 356.506 310.723 353.68 302.375 350.988C294.027 348.296 285.545 346.008 277.063 343.989C274.909 343.451 275.582 340.355 277.736 340.759Z" fill="black"/>
</g>
<path d="M406.587 504.156H66.0811C66.0811 504.156 86.1425 461.894 95.0288 413.709C101.222 380.33 105.8 360.814 123.169 350.047C135.421 342.51 161.676 334.703 172.986 330.666C180.66 327.974 182.276 330.262 187.796 328.781C187.796 329.454 187.931 329.993 187.931 330.666C187.931 330.666 202.472 373.87 240.306 389.214C271.139 401.731 289.45 393.386 292.277 379.523C294.027 370.64 288.507 356.104 285.68 351.393C284.064 350.047 282.987 348.028 282.448 346.009L281.371 341.568C283.929 341.029 286.353 340.356 288.776 339.549C289.584 339.28 290.258 339.01 291.065 338.741C306.549 342.779 339.671 355.834 354.346 369.294C360.136 374.677 373.869 401.596 382.756 440.628C392.988 484.909 406.587 504.156 406.587 504.156Z" fill="black"/>
<path d="M409.684 505.77C308.299 506.443 165.984 508.058 66.2157 507.654C63.7921 507.654 62.0418 504.962 63.1189 502.809C75.102 476.429 84.5268 448.299 90.5856 419.899C91.2588 416.265 92.7399 409.132 93.4131 405.498C96.5098 390.693 98.9333 376.022 106.877 362.428C109.57 357.987 113.071 353.814 117.244 350.449C121.284 347.219 125.996 344.797 130.708 342.643C145.788 336.183 161.003 331.068 176.486 326.357C180.122 325.55 183.757 326.492 187.258 325.684C189.277 325.146 191.431 326.626 191.566 328.78L191.701 330.664L188.065 327.299C189.546 327.299 190.893 328.242 191.297 329.588C192.374 332.683 193.855 335.913 195.336 339.009C199.914 348.296 205.569 357.045 212.435 364.716C221.456 374.945 232.766 383.021 245.691 387.597C258.752 392.442 282.044 396.615 288.507 381.002C289.584 378.176 289.45 375.215 289.046 372.119C288.103 365.793 285.949 359.063 282.852 353.41L283.525 354.218C281.371 351.392 280.563 348.027 280.833 344.797V341.566C280.833 341.297 281.102 341.028 281.371 341.028C282.987 340.49 284.468 339.817 286.084 339.278C287.565 338.605 289.046 337.932 290.527 337.125C290.931 336.856 291.335 336.99 291.739 337.125C300.625 339.413 309.107 342.508 317.59 346.008C330.246 351.257 342.767 357.179 353.673 365.658C357.578 368.485 360.405 372.657 362.694 376.83C367.272 384.905 370.907 393.25 374.139 401.729C379.793 416.535 383.967 431.878 387.603 447.356C392.18 464.45 397.701 481.408 406.183 497.021L409.01 501.867L409.28 502.136V502.27C410.088 502.943 410.222 504.828 409.684 505.77ZM403.49 502.54C402.817 503.213 402.952 505.097 403.49 505.77V505.635L403.221 505.231C393.796 489.753 387.872 472.391 383.025 455.028C380.601 446.549 378.851 437.397 376.427 428.783C371.715 411.824 365.925 394.731 357.443 379.252C355.962 376.695 354.346 373.869 352.327 371.85C348.422 368.216 343.844 365.255 339.267 362.428C331.727 357.987 323.648 354.083 315.435 350.719C307.222 347.354 298.874 344.258 290.392 341.97L292.412 341.836C288.776 342.105 285.276 342.239 281.775 342.105L282.314 341.297C283.122 342.643 284.064 344.931 284.872 346.142C285.814 347.354 286.891 348.296 288.103 348.834C288.373 349.104 288.642 349.373 288.776 349.642C293.624 358.929 298.471 372.792 294.97 383.156C286.891 403.479 259.829 400.249 243.268 393.923C229.4 389.212 216.878 380.195 207.184 369.158C197.49 358.121 189.816 345.47 184.699 331.741L187.931 334.029C186.046 334.029 184.565 332.683 184.43 330.799L184.295 329.049L188.604 332.145C187.258 332.549 185.642 332.683 184.161 332.818C180.391 332.683 177.833 332.549 174.332 333.895C169.754 335.51 165.042 337.125 160.329 338.605C151.039 341.701 141.884 344.931 133.132 348.834C113.205 356.775 107.416 372.657 102.838 392.442C100.684 401.595 98.9333 411.958 97.0484 421.245C90.8549 450.317 81.4301 478.447 69.1778 505.635L66.081 500.655C163.695 500.655 304.529 501.597 403.49 502.54Z" fill="black"/>
<path d="M228.727 403.345C182.276 382.483 164.234 345.2 167.735 335.106C167.735 335.106 167.735 334.971 167.869 334.837C170.293 329.857 174.197 325.819 179.044 322.993C181.737 321.377 184.699 319.897 187.123 319.089C223.88 309.937 272.62 325.415 289.046 339.547C294.97 346.681 301.029 353.814 303.318 372.657C306.549 399.845 276.793 425.014 228.727 403.345Z" fill="white"/>
<path d="M228.054 404.825C204.761 394.327 182.949 377.906 170.562 355.16C168.139 350.449 165.984 345.604 165.311 340.086C165.176 338.201 165.042 335.913 165.984 334.029C168.812 328.376 173.928 323.935 179.583 321.243C183.892 318.955 188.604 317.34 193.316 315.859C200.048 314.648 206.78 314.244 213.647 314.378C236.132 315.051 258.482 320.974 278.409 331.337C279.89 332.145 281.371 332.952 282.852 333.894C283.391 334.164 283.795 334.567 284.468 334.433C285.141 334.298 285.68 334.567 286.218 334.837C287.834 335.779 289.18 336.99 290.661 338.336C294.297 342.778 297.932 347.488 300.356 352.872C302.779 358.256 304.126 364.043 304.933 369.696C307.088 381.271 303.183 394.192 294.162 402.133C275.851 418.554 248.384 414.112 228.054 404.825ZM229.265 401.999C244.345 408.594 261.579 412.766 277.601 407.651C290.527 403.748 301.163 392.039 301.567 378.31C301.702 370.235 299.817 361.755 296.586 354.353C294.835 349.776 289.988 343.989 287.565 341.028C286.084 339.817 284.468 338.874 283.122 337.663L282.718 336.856C282.448 336.183 281.91 336.048 281.506 335.644C280.159 334.837 278.678 334.029 277.197 333.222C265.484 327.165 252.558 323.665 239.633 321.108C224.553 318.282 209.069 317.474 193.855 319.628C191.701 319.897 189.412 319.628 187.258 320.166C185.642 320.839 182.68 322.185 180.795 323.531C175.948 326.357 172.312 330.53 169.754 335.51L169.62 335.644C169.62 335.779 169.485 336.048 169.485 336.183C168.812 341.835 171.505 347.623 174.063 352.872C176.352 357.179 179.044 361.351 182.141 365.389C194.528 381.406 211.089 393.788 229.265 401.999Z" fill="black"/>
<path d="M290.391 376.561C287.563 390.424 269.252 398.768 238.42 386.251C206.375 373.33 192.507 342.509 189.007 333.356C207.991 297.824 194.796 273.193 194.796 273.193C238.554 269.425 276.792 320.57 276.792 320.57L282.716 345.873C283.255 348.027 284.332 349.911 285.948 351.257C288.775 356.237 292.141 367.677 290.391 376.561Z" fill="white"/>
<path d="M188.335 333.76C190.893 329.857 192.508 325.281 193.586 320.839C195.605 311.552 196.278 302.131 196.413 292.709V289.21C196.009 285.71 194.797 282.076 193.451 278.846C191.701 274.539 198.029 271.847 200.048 276.154C200.318 276.693 200.318 277.635 200.318 278.173C200.722 296.478 201.529 320.031 189.95 335.24C189.142 336.048 187.527 334.837 188.335 333.76ZM278.273 320.301C280.293 321.512 280.966 323.127 281.235 324.742C282.043 327.972 281.774 331.472 282.582 334.837C283.255 338.067 285.274 341.163 285.813 344.527C286.486 348.027 288.506 355.429 289.314 359.063C289.583 359.871 289.044 360.813 288.102 360.948C287.563 361.082 287.159 360.948 286.756 360.679C285.005 359.198 284.197 357.718 283.12 355.833C281.37 352.603 280.158 349.642 279.081 346.008C278.139 342.778 278.542 339.278 277.735 335.913C277.061 332.683 275.176 329.588 274.503 326.223C274.099 324.608 273.965 322.858 275.176 320.839C275.984 320.031 277.331 319.762 278.273 320.301Z" fill="black"/>
<path d="M287.969 355.833C262.252 354.487 241.248 346.412 220.783 309.937C238.017 325.146 258.348 330.934 279.756 333.625L282.583 346.008C283.122 348.161 286.353 354.487 287.969 355.833Z" fill="black"/>
<path d="M286.891 350.853C291.469 359.467 294.162 370.235 291.335 379.791C289.18 386.52 282.987 391.5 276.255 393.385C260.637 397.557 242.595 390.962 228.727 383.559C211.627 374.003 198.971 357.987 190.893 340.489C190.354 339.144 192.239 338.067 193.047 339.413C195.874 345.066 199.106 350.584 202.741 355.564C206.376 360.678 210.55 365.389 215.263 369.562C228.996 381.944 247.576 389.616 266.157 389.616C285.276 389.078 292.546 378.983 288.103 360.409C287.43 357.448 286.353 354.353 284.872 351.795C284.064 350.719 286.084 349.507 286.891 350.853Z" fill="black"/>
<path d="M338.997 189.207C341.421 200.513 333.342 212.626 333.342 242.775C333.342 273.597 327.688 307.11 304.395 330.395C284.333 350.449 261.31 349.642 234.247 328.511C230.477 325.55 217.282 315.59 213.916 312.225C210.012 308.322 207.858 305.495 205.973 302.534C204.357 299.842 204.761 284.23 202.472 280.596C196.548 270.77 195.336 281.403 187.661 272.789C177.025 261.214 164.234 237.93 170.562 196.744C180.795 129.986 233.708 122.18 272.889 129.582C312.339 137.119 332.535 159.462 338.997 189.207Z" fill="white"/>
<path d="M194.393 284.768C191.297 279.654 187.392 275.077 183.757 270.367C180.122 265.387 177.159 260.138 174.736 254.485C161.003 221.24 163.022 177.767 187.392 149.771C204.088 130.659 230.477 124.333 254.712 125.679C278.948 127.16 304.125 133.351 322.033 150.848C332.4 160.943 338.997 174.402 341.959 188.4C342.902 192.841 342.229 197.686 341.152 201.859C338.055 213.568 335.093 224.74 334.824 236.853C334.958 254.888 334.42 273.328 329.169 290.69C325.399 302.265 320.956 313.84 313.954 323.935C306.684 334.164 295.778 342.374 283.256 344.797C258.078 349.911 234.516 334.029 217.821 316.801C217.148 315.994 218.09 315.052 218.898 315.59C228.458 322.858 238.286 329.588 248.923 334.164C279.621 348.296 305.068 335.24 318.532 305.63C329.842 284.095 333.073 260.811 332.131 236.718C332.131 230.662 332.4 224.605 333.208 218.548C334.016 209.8 336.978 201.051 336.843 192.437C334.554 178.44 328.092 164.98 318.397 154.617C295.374 130.255 251.212 123.122 220.244 134.159C183.757 147.079 173.928 183.823 171.909 218.952C170.562 239.949 176.756 260.541 192.643 274.943L198.971 281.538C201.125 284.499 196.548 287.998 194.393 284.768Z" fill="black"/>
<path d="M210.281 241.967C210.281 241.967 206.107 221.778 186.45 224.201C169.485 226.355 163.561 267.002 202.068 278.307" fill="white"/>
<path d="M200.318 260.676C197.221 258.926 195.067 255.965 194.932 252.331C195.067 249.639 195.471 246.544 194.797 243.852C194.393 241.294 191.701 240.621 189.681 240.756C187.527 241.16 186.18 243.852 185.776 246.005C185.776 246.14 185.642 246.544 185.642 246.678C185.507 247.351 184.43 247.351 184.161 246.678C182.41 241.429 186.315 235.642 191.97 236.314C199.914 236.853 200.991 245.198 199.51 251.523C198.702 254.215 199.779 256.638 201.26 258.926L201.529 259.33C202.203 260.137 201.125 261.214 200.318 260.676ZM308.03 227.701C310.05 237.257 313.82 246.14 318.532 254.485C322.706 264.714 311.935 274.404 302.375 274.001C301.298 274.001 301.163 272.52 302.106 272.251C308.165 270.367 313.685 266.329 314.627 260.137C315.031 258.253 314.493 256.638 313.55 255.023C309.107 246.678 306.414 237.122 307.088 227.701C307.088 227.028 308.03 227.028 308.03 227.701Z" fill="black"/>
<path d="M209.608 242.102C206.511 234.161 199.779 226.624 190.758 226.758C189.95 226.624 188.604 226.893 187.796 226.893C185.507 227.028 183.622 227.835 181.872 229.45C173.255 238.064 174.736 253.273 181.737 262.829C184.161 266.194 187.258 269.155 190.758 271.578C194.259 274.001 198.163 275.885 202.337 277.5C203.28 277.769 202.876 279.25 201.933 279.115C192.912 277.231 184.295 272.789 178.371 265.387C169.216 254.35 167.331 235.911 178.237 225.143C180.66 222.99 184.026 221.375 187.392 221.375C188.469 221.375 190.085 221.106 191.162 221.375C196.817 221.644 202.203 224.47 205.703 228.912C208.8 232.681 210.55 237.257 211.089 241.833C211.089 242.64 209.877 242.91 209.608 242.102Z" fill="black"/>
<path d="M345.093 145.32C347.516 139.667 347.516 133.476 343.477 128.092C331.763 112.614 295.545 124.324 275.349 117.863C245.055 108.038 207.49 106.827 185.409 143.167C179.889 152.319 177.196 154.876 169.387 162.144C161.308 169.681 154.98 183.545 154.442 202.522C153.23 240.612 183.12 273.722 183.12 273.722C184.601 275.741 185.947 277.49 187.159 278.971C197.93 291.892 201.296 316.792 198.065 277.49C164.54 264.57 170.598 227.018 186.89 224.999C204.124 222.846 209.51 238.189 210.452 241.958C222.031 234.555 217.857 218.808 216.511 204.137C225.532 200.1 233.206 190.409 237.245 181.66C241.689 187.852 247.074 192.697 253.537 193.235C260.404 193.908 264.443 188.121 265.789 179.911C274.676 191.62 290.429 206.156 315.202 208.983C327.051 210.329 336.879 205.349 343.477 197.138C345.227 197.408 346.843 197.542 348.459 197.408C365.827 195.658 385.215 160.529 345.093 145.32Z" fill="black"/>
<path d="M264.137 231.873V232.142L264.003 235.911C263.868 239.141 261.175 241.564 257.944 241.429C254.712 241.294 252.289 238.468 252.558 235.372L252.693 231.604C252.693 230.931 252.962 230.123 253.231 229.585L264.003 230.123C264.003 230.662 264.137 231.2 264.137 231.873ZM320.417 234.834L320.282 238.333C320.148 241.294 317.59 243.583 314.627 243.448C311.665 243.313 309.376 240.756 309.511 237.795L309.646 234.296C309.646 233.623 309.78 232.95 310.05 232.411L320.148 232.815C320.282 233.488 320.417 234.161 320.417 234.834ZM277.601 213.434C280.563 213.837 282.852 210.742 281.775 207.781C281.237 206.166 280.294 204.685 278.813 203.743C274.235 200.917 257.136 200.647 248.115 207.108C240.037 213.03 264.137 211.549 277.601 213.434ZM314.897 214.914C312.473 214.914 310.992 211.819 312.204 209.261C312.877 207.915 313.82 206.704 315.166 206.031C319.34 204.012 330.515 205.224 335.497 212.088C339.94 218.144 326.072 214.78 314.897 214.914Z" fill="black"/>
<path d="M272.753 231.873L250.537 231.469C247.844 231.335 247.979 227.297 250.672 227.432L272.888 229.047C274.772 229.181 274.638 231.873 272.753 231.873ZM326.072 234.161L309.646 234.43C306.953 234.43 306.818 230.527 309.511 230.393H309.78L326.207 232.142C327.418 232.277 327.284 234.027 326.072 234.161Z" fill="black"/>
<path d="M294.701 286.922C294.835 289.075 293.22 292.844 290.258 295.536C275.043 286.249 268.176 291.094 268.176 291.094C262.791 282.884 264.003 271.713 277.063 280.192C286.084 286.114 291.739 287.056 294.701 286.922Z" fill="black"/>
<path d="M290.122 295.67C286.89 298.497 282.043 300.246 275.446 297.554C272.349 296.343 269.925 293.92 268.04 291.229C268.175 291.229 274.907 286.383 290.122 295.67Z" fill="white"/>
<path d="M297.259 286.518C297.259 286.518 291.604 289.613 277.063 280.326C259.694 269.155 263.195 292.574 275.447 297.554C288.238 302.803 294.835 291.363 294.701 287.056" stroke="black" stroke-width="3" stroke-miterlimit="10" stroke-linecap="round" stroke-linejoin="round"/>
<path d="M268.176 291.229C268.176 291.229 275.043 286.383 290.258 295.67" stroke="black" stroke-width="3" stroke-miterlimit="10" stroke-linecap="round" stroke-linejoin="round"/>
</g>
<defs>
<clipPath id="clip0_60_79">
<rect width="500" height="500" rx="250" fill="white"/>
</clipPath>
<clipPath id="clip1_60_79">
<rect width="412" height="411.855" fill="white" transform="translate(44 46)"/>
</clipPath>
</defs>
</svg>
