<svg width="500" height="500" viewBox="0 0 500 500" fill="none" xmlns="http://www.w3.org/2000/svg">
<g clip-path="url(#clip0_60_83)">
<rect width="500" height="500" rx="250" fill="#B8D0F4"/>
<g clip-path="url(#clip1_60_83)">
<path d="M361.886 420.707C360.944 421.38 359.867 422.053 358.924 422.726C357.847 423.399 356.905 424.072 355.827 424.61C354.885 425.149 354.077 425.687 353.135 426.225C353 426.36 352.865 426.36 352.731 426.494C349.634 428.379 346.403 430.128 343.171 431.744C342.229 432.282 341.152 432.82 340.209 433.224C340.209 433.224 340.075 433.359 339.94 433.359L336.708 434.974C334.554 436.051 332.265 436.993 330.111 437.935C329.034 438.473 327.822 438.877 326.745 439.281C325.668 439.685 324.456 440.223 323.379 440.627C322.302 441.031 321.09 441.569 320.013 441.973H319.878C318.801 442.376 317.59 442.78 316.512 443.184C314.089 443.992 311.531 444.799 309.107 445.607C308.299 445.876 307.357 446.145 306.549 446.414C303.991 447.222 301.433 447.895 298.875 448.433C297.932 448.702 296.99 448.837 295.912 449.106C293.489 449.644 290.931 450.183 288.507 450.721C287.969 450.856 287.565 450.856 287.026 450.99C286.218 451.125 285.276 451.26 284.468 451.394C283.256 451.529 282.179 451.798 280.967 451.933C280.429 452.067 279.89 452.067 279.352 452.202C278.678 452.336 277.871 452.471 277.063 452.471C274.909 452.74 272.62 453.009 270.465 453.278C269.792 453.413 268.984 453.413 268.311 453.548H268.176C267.234 453.682 266.292 453.682 265.349 453.817C264.407 453.951 263.464 453.951 262.522 453.951C261.983 453.951 261.31 454.086 260.771 454.086C259.694 454.086 258.752 454.221 257.809 454.221C256.463 454.221 255.251 454.355 253.905 454.355H247.173C190.354 453.548 139.326 429.456 102.838 391.231C102.838 391.231 102.838 391.097 102.703 391.097C98.6641 387.462 102.165 368.081 118.456 355.833C138.922 340.355 187.931 330.664 187.931 330.664C187.931 330.664 206.915 327.569 277.332 342.239C318.532 350.853 349.903 363.37 367.407 397.288C371.042 404.287 374.677 415.054 361.886 420.707Z" fill="white"/>
<path d="M277.736 340.758C303.587 346.008 331.188 351.661 352.461 368.754C359.597 374.541 364.31 383.021 368.214 391.231C370.099 395.269 371.984 399.441 373.465 403.883C374.273 406.844 375.485 410.208 374.812 413.708C374.677 414.65 373.869 415.861 373.196 416.534C370.099 419.63 366.733 421.514 363.367 423.937C343.575 437.665 320.821 447.356 297.259 452.471C244.749 463.911 187.931 455.028 141.749 427.436C126.4 418.149 112.263 406.844 100.145 393.519C98.7987 391.904 98.7987 389.212 98.7987 387.462C98.9333 383.424 100.01 379.521 101.357 375.887C104.588 367.542 108.762 359.198 115.898 353.41C121.014 349.911 126.535 346.95 132.19 344.527C149.962 336.99 168.677 331.741 187.931 329.587C189.546 329.453 189.816 331.741 188.2 332.01C169.754 335.779 151.443 341.431 134.344 349.103C128.15 352.199 121.553 354.891 116.571 359.736C111.859 364.851 108.493 371.176 105.8 377.637C104.05 381.54 102.838 387.731 103.376 390.827C111.859 400.922 121.822 409.805 132.593 417.476C191.566 458.662 281.102 461.354 343.844 427.033C349.499 423.937 355.02 420.438 360.271 416.804C362.829 415.054 365.522 413.573 367.541 411.554C367.676 411.42 367.541 411.554 367.541 411.689C367.541 411.824 367.407 411.958 367.407 411.958C367.541 410.343 367.003 408.19 366.329 406.036C363.906 398.23 360.001 390.02 355.827 382.886C349.23 372.253 338.055 365.524 326.745 360.14C318.936 356.506 310.723 353.679 302.375 350.988C294.027 348.296 285.545 346.008 277.063 343.989C274.909 343.45 275.582 340.355 277.736 340.758Z" fill="black"/>
</g>
<path d="M406.587 504.155H66.0811C66.0811 504.155 86.1425 461.893 95.0288 413.708C101.222 380.329 105.8 360.813 123.169 350.046C135.421 342.508 169.889 331.606 194.393 328.107C204.357 326.761 224.149 325.281 241.248 326.627C254.174 328.242 280.833 335.779 291.065 338.605C306.414 342.912 339.671 355.699 354.346 369.158C360.136 374.542 373.869 401.46 382.756 440.492C392.988 484.908 406.587 504.155 406.587 504.155Z" fill="black"/>
<path d="M409.684 505.77C310.184 506.712 164.503 508.731 66.2157 508.327C63.2536 508.462 61.0993 505.097 62.4457 502.405C75.3712 473.871 85.2 443.453 91.2588 412.631C96.2405 388.539 99.3373 358.121 123.707 345.469C135.69 339.413 148.346 335.375 161.137 331.606C183.622 325.011 207.454 321.781 230.881 322.454C234.516 322.589 238.286 322.723 242.056 322.992C250.135 324.204 258.078 326.223 265.888 328.242C272.889 329.991 280.025 332.01 286.892 334.029C287.699 334.433 287.969 336.048 288.373 336.856C288.911 337.798 289.584 337.663 290.527 337.259C290.931 337.125 291.335 336.856 291.739 336.99C292.681 337.125 294.027 337.663 294.97 337.932C315.839 344.662 336.843 352.603 354.481 365.928C357.039 367.812 359.059 370.369 360.675 373.061C363.906 378.176 366.599 383.425 369.022 388.808C376.293 404.825 381.678 421.649 385.718 438.742C390.969 460.143 397.162 481.678 408.337 500.79L408.876 501.597L409.145 502.001C409.953 502.674 410.222 504.693 409.684 505.77ZM403.49 502.54C402.817 503.347 402.952 505.097 403.49 505.77L403.356 505.501L403.086 504.962C396.893 495.272 392.315 484.504 388.41 473.871C384.371 462.969 381.275 451.394 378.582 440.088C374.677 423.399 369.561 406.979 362.694 391.366C359.732 384.771 356.77 378.176 352.327 372.657C349.769 370.1 346.807 367.947 343.71 365.928C328.226 355.968 310.858 348.7 293.354 343.047C292.681 342.778 291.065 342.374 290.258 342.105C289.45 341.835 289.45 339.547 288.911 339.009C287.699 337.932 286.353 340.893 285.141 340.624C278.275 338.74 271.139 336.856 264.137 335.24C255.79 333.356 247.576 331.203 239.229 330.53C202.337 328.107 165.042 335.913 131.112 350.584C114.686 357.314 108.493 372.523 104.588 388.808C101.088 402.537 99.068 417.477 95.8366 431.34C89.6431 457.047 81.0261 481.812 70.1203 506.039L66.3503 500.117C161.945 499.848 306.549 501.328 403.49 502.54Z" fill="black"/>
<path d="M290.391 376.561C287.563 390.424 269.252 398.768 238.42 386.251C206.375 373.33 192.507 342.509 189.007 333.356C207.991 297.824 194.796 273.193 194.796 273.193C238.554 269.425 276.792 320.57 276.792 320.57L282.716 345.873C283.255 348.027 284.332 349.911 285.948 351.257C288.775 356.237 292.141 367.677 290.391 376.561Z" fill="white"/>
<path d="M188.335 333.76C190.893 329.857 192.508 325.28 193.586 320.839C195.605 311.552 196.278 302.13 196.413 292.709V289.209C196.009 285.71 194.797 282.076 193.451 278.846C191.701 274.539 198.029 271.847 200.048 276.154C200.318 276.692 200.318 277.634 200.318 278.173C200.722 296.477 201.529 320.031 189.95 335.24C189.142 336.048 187.527 334.836 188.335 333.76ZM278.274 320.3C280.294 321.512 280.967 323.127 281.237 324.742C282.044 327.972 281.775 331.472 282.583 334.836C283.256 338.067 285.276 341.162 285.814 344.527C286.488 348.027 288.507 355.429 289.315 359.063C289.584 359.871 289.046 360.813 288.103 360.948C287.565 361.082 287.161 360.948 286.757 360.678C285.007 359.198 284.199 357.717 283.122 355.833C281.371 352.603 280.159 349.642 279.082 346.008C278.14 342.777 278.544 339.278 277.736 335.913C277.063 332.683 275.178 329.587 274.505 326.223C274.101 324.607 273.966 322.858 275.178 320.839C275.986 320.031 277.332 319.762 278.274 320.3Z" fill="black"/>
<path d="M287.969 355.833C262.252 354.487 241.248 346.412 220.783 309.937C238.017 325.146 258.348 330.934 279.756 333.625L282.583 346.008C283.122 348.161 286.353 354.487 287.969 355.833Z" fill="black"/>
<path d="M286.891 350.853C291.469 359.467 294.162 370.235 291.335 379.791C289.18 386.521 282.987 391.5 276.255 393.385C260.637 397.557 242.595 390.962 228.727 383.559C211.627 374.003 198.971 357.987 190.893 340.49C190.354 339.144 192.239 338.067 193.047 339.413C195.874 345.066 199.106 350.584 202.741 355.564C206.376 360.679 210.55 365.389 215.263 369.562C228.996 381.944 247.576 389.616 266.157 389.616C285.276 389.078 292.546 378.983 288.103 360.409C287.43 357.448 286.353 354.353 284.872 351.796C284.064 350.719 286.084 349.507 286.891 350.853Z" fill="black"/>
<path d="M338.997 189.207C341.421 200.513 342.633 209.665 336.035 239.814C329.573 269.828 345.326 276.02 308.03 324.069C292.816 343.72 255.924 338.202 226.034 317.878C215.936 311.014 211.627 293.382 204.088 280.865C198.163 271.04 195.471 281.269 187.661 272.789C177.025 261.214 164.234 237.93 170.562 196.744C180.795 129.986 233.708 122.18 272.889 129.582C312.339 137.12 332.535 159.462 338.997 189.207Z" fill="white"/>
<path d="M194.393 284.768C191.297 279.519 187.258 274.943 183.488 270.097C179.852 265.117 176.89 259.599 174.467 253.946C158.444 214.645 164.638 159.327 203.953 136.177C220.244 126.756 239.902 124.468 258.213 125.948C297.393 128.775 333.342 146.81 341.825 188.265C346.403 206.569 340.209 225.413 336.708 243.313C335.093 252.197 336.439 261.349 336.305 270.501C336.17 279.788 333.612 289.075 330.111 297.689C327.957 303.611 324.187 308.86 320.282 313.706C313.82 321.512 307.357 329.453 299.144 335.51C297.259 336.856 293.893 337.529 291.604 337.798C285.276 338.74 279.082 339.009 272.754 338.605C247.98 337.528 221.456 325.55 211.493 301.592C211.089 300.65 212.435 299.977 212.974 300.785C225.899 321.243 249.596 331.337 273.158 332.683C280.429 333.087 287.834 332.952 294.97 331.472C298.471 329.722 301.567 326.626 304.529 323.8C311.8 316.532 319.205 308.726 324.456 299.842C330.784 287.864 334.285 274.808 333.208 261.214C332.939 255.158 332.804 248.832 334.016 242.775C335.093 236.718 336.439 230.931 337.247 224.74C338.055 218.817 338.459 212.761 338.459 206.839C337.786 189.476 332.131 171.575 321.09 158.116C296.72 127.833 239.094 119.892 206.646 140.619C186.18 153.271 176.621 176.959 173.524 199.974C168.812 227.566 170.158 254.754 192.105 274.808L198.567 281.538C201.125 284.499 196.548 287.998 194.393 284.768Z" fill="black"/>
<path d="M210.28 241.968C210.28 241.968 206.106 221.779 186.448 224.201C169.484 226.355 163.559 267.002 202.067 278.308" fill="white"/>
<path d="M200.318 260.676C197.221 258.926 195.067 255.965 194.932 252.331C195.067 249.639 195.471 246.544 194.797 243.852C194.393 241.294 191.701 240.621 189.681 240.756C187.527 241.16 186.18 243.852 185.776 246.005C185.776 246.14 185.642 246.544 185.642 246.678C185.507 247.351 184.43 247.351 184.161 246.678C182.41 241.429 186.315 235.642 191.97 236.314C199.914 236.853 200.991 245.198 199.51 251.523C198.702 254.215 199.779 256.638 201.26 258.926L201.529 259.33C202.203 260.137 201.125 261.214 200.318 260.676ZM308.03 227.701C310.05 237.257 313.82 246.14 318.532 254.485C322.706 264.714 311.935 274.404 302.375 274.001C301.298 274.001 301.163 272.52 302.106 272.251C308.165 270.367 313.685 266.329 314.627 260.137C315.031 258.253 314.493 256.638 313.55 255.023C309.107 246.678 306.414 237.122 307.088 227.701C307.088 227.028 308.03 227.028 308.03 227.701Z" fill="black"/>
<path d="M209.608 242.102C206.511 234.161 199.779 226.624 190.758 226.758C189.95 226.624 188.604 226.893 187.796 226.893C185.507 227.027 183.622 227.835 181.872 229.45C173.255 238.064 174.736 253.273 181.737 262.829C184.161 266.194 187.258 269.155 190.758 271.578C194.259 274 198.163 275.885 202.337 277.5C203.28 277.769 202.876 279.25 201.933 279.115C192.912 277.231 184.295 272.789 178.371 265.386C169.216 254.35 167.331 235.911 178.237 225.143C180.66 222.99 184.026 221.375 187.392 221.375C188.469 221.375 190.085 221.105 191.162 221.375C196.817 221.644 202.203 224.47 205.703 228.912C208.8 232.68 210.55 237.256 211.089 241.833C211.089 242.64 209.877 242.909 209.608 242.102Z" fill="black"/>
<path d="M355.836 308.052C340.217 268.213 342.237 255.696 346.007 222.182C353.547 156.232 329.715 140.215 317.194 133.889C263.876 106.836 202.749 120.026 179.726 157.174C165.319 180.324 164.781 198.897 156.702 225.547C142.834 271.174 109.443 291.363 119.811 338.067C134.083 384.097 225.369 404.421 223.619 356.506C222.541 327.568 200.864 323.665 200.46 283.691C200.46 280.999 200.595 278.442 200.864 276.019C163.703 264.31 169.628 224.47 186.458 222.317C198.171 220.836 204.365 227.431 207.462 232.95C207.731 233.757 208.135 234.43 208.539 235.238C211.232 239.814 243.007 231.2 267.242 216.26C281.379 207.511 303.46 192.437 309.519 175.882C309.788 175.209 314.097 195.936 334.293 222.855C333.351 238.872 337.39 278.846 316.924 311.821C302.114 335.913 283.534 338.067 283.534 338.067C283.534 354.083 311.943 353.276 323.791 355.968C338.602 359.198 353.277 368.081 353.277 368.081C353.277 368.081 370.242 344.796 355.836 308.052Z" fill="black"/>
<path d="M257.809 241.429C254.578 241.295 252.154 238.603 252.424 235.372L252.558 231.604C252.693 228.374 255.386 225.951 258.617 226.22C261.848 226.355 264.272 229.047 264.003 232.277L263.868 236.045C263.733 239.141 261.041 241.564 257.809 241.429ZM314.493 243.448C311.531 243.313 309.242 240.756 309.376 237.795L309.511 234.296C309.646 231.335 312.204 229.047 315.166 229.181C318.128 229.316 320.417 231.873 320.282 234.834L320.148 238.334C320.013 241.295 317.455 243.583 314.493 243.448Z" fill="black"/>
<path d="M269.927 234.161C265.484 231.2 260.637 229.181 255.251 230.258C253.501 230.527 251.75 231.065 250.673 232.277C250.269 232.815 249.327 232.681 249.327 231.873C249.461 229.181 251.75 227.431 253.905 226.355C258.078 224.201 263.868 224.605 267.638 227.431C268.984 228.239 273.562 233.219 271.139 234.296C270.6 234.565 270.331 234.43 269.927 234.161ZM308.434 234.834C308.434 229.181 315.435 227.162 319.744 229.181C322.167 230.258 323.918 232.411 324.591 234.969C324.86 235.776 323.648 236.449 323.11 235.776C320.821 233.084 316.916 231.738 313.82 233.353C312.877 233.892 312.742 234.296 312.473 234.834C312.473 237.526 308.569 237.391 308.434 234.834ZM276.39 211.953C279.217 212.895 282.044 210.338 281.506 207.242C281.237 205.627 280.563 204.012 279.217 202.801C275.178 199.167 258.482 195.937 248.384 200.647C239.498 204.954 263.464 207.646 276.39 211.953ZM316.648 214.107C314.36 214.914 311.936 212.492 312.34 209.665C312.475 208.185 313.013 206.704 314.09 205.627C317.322 202.397 328.362 199.84 335.363 204.82C341.422 208.992 327.15 210.203 316.648 214.107Z" fill="black"/>
<path d="M299.009 286.787C296.72 288.402 293.354 287.056 290.931 288.133C289.18 288.671 286.353 291.094 282.314 290.825C279.082 290.555 277.467 288.94 274.774 287.729C271.946 286.787 268.984 285.037 267.099 282.749C266.695 282.345 266.695 281.807 267.099 281.403C267.638 280.865 268.176 281.268 268.715 281.538C269.927 282.211 270.869 282.749 271.812 283.018C272.754 283.287 273.697 283.018 275.178 283.018C276.659 282.884 278.813 283.557 280.159 284.633C281.102 285.306 282.179 285.71 282.987 285.845C285.141 286.248 287.834 284.499 290.123 284.23C291.739 283.96 293.489 284.095 294.835 284.499C296.182 284.902 297.124 285.172 298.201 284.902C299.413 284.633 300.086 286.248 299.009 286.787Z" fill="black"/>
<path d="M315.839 258.792C315.839 258.792 317.455 267.944 328.092 272.52C330.784 273.597 333.612 271.847 333.612 268.886C333.477 268.886 316.512 259.869 315.839 258.792ZM232.631 258.792C232.631 258.792 237.613 270.098 252.558 272.789C267.503 275.616 281.102 264.848 287.43 246.813C287.43 246.813 282.314 263.503 261.848 266.598C241.652 269.963 232.631 258.792 232.631 258.792Z" fill="black"/>
<path d="M308.838 229.181C310.992 211.819 322.302 198.225 335.631 198.225C350.038 198.225 361.078 214.107 360.271 233.488C359.463 252.735 347.345 268.213 333.208 268.213C327.957 268.213 323.244 266.194 319.34 262.56M222.533 229.854H203.414M290.527 229.854C290.527 229.854 306.549 223.663 308.569 229.854M290.394 233.623C289.99 252.869 274.506 268.348 255.791 268.348C237.076 268.348 222.131 252.869 222.131 233.623C222.265 214.241 237.749 198.359 256.733 198.359C275.718 198.359 290.932 214.241 290.394 233.623Z" stroke="black" stroke-width="3" stroke-miterlimit="10" stroke-linecap="round" stroke-linejoin="round"/>
</g>
<defs>
<clipPath id="clip0_60_83">
<rect width="500" height="500" rx="250" fill="white"/>
</clipPath>
<clipPath id="clip1_60_83">
<rect width="412" height="411.855" fill="white" transform="translate(44 46)"/>
</clipPath>
</defs>
</svg>
